<?xml version="1.0" standalone="no"?>
<!DOCTYPE svg PUBLIC "-//W3C//DTD SVG 20010904//EN"
 "http://www.w3.org/TR/2001/REC-SVG-20010904/DTD/svg10.dtd">
<svg version="1.0" xmlns="http://www.w3.org/2000/svg"
 width="460.000000pt" height="460.000000pt" viewBox="0 0 460.000000 460.000000"
 preserveAspectRatio="xMidYMid meet">

<g transform="translate(0.000000,460.000000) scale(0.100000,-0.100000)"
fill="#000000" stroke="none">
<path d="M1965 4306 c-218 -85 -326 -188 -356 -339 -11 -54 -14 -58 -53 -76
-22 -10 -66 -38 -96 -63 -82 -67 -116 -82 -187 -83 -49 0 -59 -3 -50 -13 17
-21 77 -45 129 -51 l46 -6 -39 -65 c-48 -80 -100 -243 -106 -330 l-4 -65 36
73 c20 41 38 72 40 70 2 -2 8 -66 14 -143 6 -77 14 -155 17 -173 6 -31 7 -32
25 -16 15 14 19 14 23 3 2 -8 18 -66 36 -129 18 -63 35 -120 37 -126 2 -6 -11
-11 -31 -12 -53 -2 -81 -26 -100 -83 -20 -64 -20 -104 0 -183 20 -79 49 -128
120 -200 51 -52 138 -106 172 -106 7 0 26 -30 43 -67 16 -37 46 -89 66 -117
33 -47 34 -50 17 -63 -10 -7 -25 -13 -34 -13 -24 0 -292 -96 -377 -135 -72
-33 -93 -55 -93 -96 0 -13 -18 -37 -47 -63 -98 -85 -93 -78 -93 -160 l0 -74
-70 -77 c-79 -87 -85 -107 -50 -195 l20 -50 -23 -14 c-12 -8 -79 -42 -148 -75
-153 -74 -200 -115 -223 -195 -33 -111 -74 -303 -86 -396 -7 -60 -20 -112 -35
-141 -17 -33 -23 -61 -22 -105 0 -32 -3 -80 -7 -106 -6 -39 -4 -48 7 -48 17 0
43 145 32 179 -4 14 1 33 13 54 11 17 23 52 27 77 22 152 60 339 87 428 28 92
36 108 74 140 41 36 299 172 326 172 8 0 23 -6 33 -14 17 -12 16 -14 -17 -25
-20 -7 -82 -37 -138 -67 -56 -29 -105 -54 -109 -54 -13 0 -61 -56 -61 -71 0
-25 -12 -30 -26 -11 -12 15 -13 14 -14 -11 0 -16 -9 -42 -21 -58 -33 -47 -81
-247 -104 -439 -5 -44 -36 -167 -71 -282 -5 -17 88 -18 1815 -18 1422 0 1821
3 1821 12 0 7 -6 30 -14 53 -39 110 -67 219 -76 300 -20 163 -67 346 -100 388
-11 14 -20 36 -20 49 -1 20 -3 19 -15 -9 -18 -42 -29 -42 -21 0 5 27 2 37 -16
54 -47 42 -224 141 -293 163 l-40 13 33 16 c32 15 34 14 100 -23 37 -20 100
-53 141 -72 40 -19 92 -50 115 -69 39 -31 44 -42 73 -147 18 -62 42 -167 53
-233 29 -162 40 -214 57 -255 8 -19 18 -69 23 -110 14 -110 20 -130 37 -130
12 0 14 7 9 27 -4 16 -9 60 -12 98 -3 40 -15 94 -29 125 -13 30 -31 105 -40
165 -19 135 -69 349 -94 407 -25 59 -83 103 -233 177 -69 34 -132 69 -138 76
-10 12 -9 24 4 55 29 72 22 114 -26 167 -24 26 -53 59 -65 73 -20 21 -23 36
-23 106 l0 82 -52 43 c-33 28 -60 62 -75 96 -18 40 -35 59 -66 77 -57 33 -190
86 -317 126 -58 18 -117 38 -132 43 l-28 9 29 34 c16 18 44 64 61 101 17 37
34 74 38 82 4 7 29 21 55 31 61 23 120 69 177 137 62 73 82 124 88 216 8 142
-28 207 -115 207 -39 0 -44 2 -38 18 4 9 16 46 26 82 10 36 37 101 59 146 26
52 40 94 40 119 0 50 10 39 19 -22 l7 -48 17 50 c42 121 31 332 -26 472 l-24
59 60 11 c38 8 68 20 81 34 l21 22 -23 -6 c-13 -3 -44 0 -68 8 -45 13 -146 72
-153 89 -2 4 -11 16 -20 25 -10 10 -25 28 -34 42 -31 44 -168 177 -203 195
-19 10 -34 23 -34 28 0 5 20 27 43 50 24 23 49 52 57 65 11 22 11 23 -6 16
-120 -49 -176 -47 -365 16 l-154 51 -160 -4 c-148 -4 -167 -7 -260 -38 -55
-18 -122 -44 -150 -57 -57 -28 -53 -25 68 76 48 40 87 75 87 77 0 9 -28 1
-105 -30z m48 -126 c-45 -16 -92 -36 -105 -44 -12 -9 -27 -16 -33 -16 -18 0
58 42 120 66 33 13 69 23 80 23 11 0 -17 -13 -62 -29z m905 -137 c49 -29 163
-138 244 -235 32 -38 67 -66 105 -85 55 -26 56 -28 29 -31 -42 -5 -117 18
-124 38 -6 16 -126 153 -177 203 -11 11 -51 42 -88 70 -50 36 -65 52 -55 58
17 11 13 13 66 -18z m359 -464 c37 -74 63 -189 63 -284 0 -92 -16 -73 -22 27
-6 80 -14 110 -72 261 -32 86 -14 84 31 -4z m-1368 -308 c7 -5 30 -38 50 -74
76 -136 197 -264 282 -300 20 -8 56 -18 80 -22 l44 -6 -37 23 c-44 28 -124
102 -139 130 -10 19 -10 19 18 2 15 -10 39 -27 52 -38 13 -12 21 -15 17 -8
-11 19 1 14 25 -10 12 -13 19 -17 15 -10 -6 10 -2 10 18 1 14 -7 23 -15 21
-19 -3 -4 1 -7 8 -6 6 0 45 -16 86 -37 90 -47 118 -43 67 10 -20 20 -35 37
-34 39 2 1 15 0 29 -3 34 -6 89 -52 71 -60 -7 -2 -19 -11 -26 -19 -8 -8 -19
-14 -25 -14 -5 0 -20 -14 -32 -32 l-23 -31 55 7 c30 4 118 23 196 42 78 19
164 35 192 37 87 4 11 42 -99 50 l-45 3 -2 46 c-1 26 -9 64 -18 85 l-16 38 42
-43 c24 -25 48 -41 56 -38 8 3 12 2 9 -3 -10 -15 39 -41 55 -29 11 8 10 9 -4
4 -12 -4 -16 -2 -11 6 4 6 3 8 -4 4 -6 -3 -13 -2 -17 3 -9 15 30 5 62 -16 36
-23 50 -40 70 -83 l15 -34 14 27 c8 15 17 27 19 27 3 0 5 -34 5 -76 0 -74 -1
-76 -22 -70 -76 21 -226 28 -356 18 -145 -12 -184 -21 -244 -59 -30 -18 -52
-23 -107 -23 -48 0 -72 4 -81 15 -43 52 -295 86 -488 66 -65 -6 -128 -14 -141
-18 l-24 -6 6 83 c4 46 9 85 12 88 2 3 11 -1 20 -8 22 -18 26 -9 14 34 -12 45
-3 130 16 146 8 6 12 17 9 24 -8 22 29 53 101 85 39 17 69 35 68 40 -2 7 10 8
29 4 22 -4 29 -3 24 5 -8 14 3 15 23 3z m1352 -158 c-6 -29 -15 -62 -21 -71
-10 -14 -10 -13 -6 8 3 14 8 54 12 89 5 49 9 59 17 46 6 -11 6 -36 -2 -72z
m-638 -43 c7 -6 24 -20 40 -31 15 -11 25 -24 22 -29 -3 -4 1 -7 9 -6 8 0 28
-17 46 -39 l32 -40 -49 -11 c-116 -26 -113 -26 -113 1 0 22 4 25 38 25 35 1
36 1 17 16 -11 8 -26 19 -32 23 -12 6 -36 101 -26 101 2 0 9 -5 16 -10z m-797
-330 c-27 -11 -62 -32 -77 -48 l-29 -29 31 -43 c33 -46 45 -48 29 -6 -5 15
-10 31 -10 36 0 13 39 37 71 45 25 6 25 6 21 -52 -3 -49 0 -64 20 -93 34 -50
67 -66 115 -55 31 8 42 18 61 55 12 24 22 58 22 75 1 28 1 29 15 11 11 -14 15
-16 15 -5 -1 37 -48 86 -105 108 l-30 11 30 -6 c17 -3 47 -14 68 -25 37 -19
38 -19 27 0 -9 18 -8 19 22 11 17 -5 42 -20 56 -32 22 -21 24 -29 20 -98 -5
-93 -40 -175 -90 -213 -87 -67 -312 -56 -378 19 -41 47 -83 203 -72 273 6 42
22 53 100 67 103 18 125 16 68 -6z m1034 10 c96 -13 129 -26 136 -57 18 -68
-27 -252 -72 -297 -35 -35 -91 -49 -194 -50 -152 -1 -221 45 -260 170 -30 97
-27 148 9 185 16 16 40 29 52 29 18 0 20 -3 11 -12 -22 -22 -12 -32 11 -11 19
17 87 43 113 43 4 0 -16 -12 -45 -26 -31 -16 -61 -40 -72 -58 -25 -40 -24 -58
1 -27 l20 23 0 -33 c0 -46 37 -118 67 -130 41 -15 80 -10 108 14 33 28 56 109
44 151 -5 16 -7 32 -4 34 2 2 21 -4 42 -14 36 -18 38 -21 36 -63 -2 -42 -1
-43 15 -25 9 11 25 31 34 45 16 26 16 27 -15 57 -20 19 -53 37 -87 46 -65 17
-52 19 50 6z m-1382 -21 c37 -13 77 -86 92 -168 13 -67 13 -66 -4 -52 -8 6
-23 33 -34 59 -20 47 -67 92 -96 92 -22 0 -46 -40 -45 -75 l1 -30 14 33 c13
29 19 33 46 30 39 -4 61 -34 36 -49 -23 -13 -23 -29 0 -29 29 0 40 -19 35 -60
-4 -28 -1 -44 11 -55 14 -15 16 -15 16 -1 0 9 -4 16 -10 16 -12 0 3 43 18 48
14 4 29 -25 34 -68 1 -19 6 -37 10 -40 8 -6 38 -116 38 -137 0 -20 -39 -11
-86 19 -58 37 -133 124 -162 188 -42 90 -43 211 -1 264 22 28 40 32 87 15z
m1779 -11 c33 -37 41 -78 33 -160 -8 -88 -31 -138 -97 -216 -46 -54 -136 -114
-163 -109 -20 3 -14 65 8 91 10 11 11 16 5 12 -7 -4 -13 -2 -13 3 0 6 5 11 10
11 5 0 9 3 8 8 -2 4 1 8 5 9 5 1 19 13 32 27 12 13 26 22 29 19 3 -4 6 -1 6 7
0 10 3 10 14 1 11 -9 16 -9 22 0 4 8 3 9 -4 5 -6 -4 -18 6 -27 23 -17 34 -19
45 -6 37 5 -3 11 8 15 24 4 24 11 30 31 30 17 0 26 -6 29 -22 3 -13 7 -32 9
-43 3 -11 5 -5 6 14 0 18 -9 51 -21 72 -21 39 -21 39 -2 54 28 22 47 14 58
-23 10 -36 26 -43 26 -12 0 34 -29 80 -50 80 -24 0 -87 -62 -119 -118 -14 -23
-26 -40 -28 -38 -6 6 19 111 32 132 7 11 15 31 17 45 2 16 15 30 38 41 47 24
72 23 97 -4z m-1632 -169 c27 -121 86 -210 148 -224 134 -30 173 -32 267 -9
107 25 156 79 199 219 12 38 27 73 34 77 19 12 104 9 115 -4 5 -7 13 -29 17
-48 14 -66 61 -155 102 -192 33 -29 57 -40 119 -54 68 -15 90 -15 167 -5 153
20 178 44 231 217 32 102 32 85 1 -84 -34 -184 -60 -273 -104 -357 -42 -81
-145 -195 -199 -221 -20 -9 -48 -25 -62 -34 -76 -52 -120 -78 -145 -84 -16 -4
-40 -16 -53 -27 -14 -10 -37 -19 -52 -19 -15 0 -41 -5 -59 -11 -23 -8 -35 -8
-45 0 -7 6 -31 12 -54 14 -22 1 -37 6 -34 11 3 5 -2 7 -11 3 -10 -3 -17 -2
-17 4 0 6 -6 9 -12 7 -7 -3 -17 -1 -23 4 -13 12 -78 52 -85 53 -27 3 -220 152
-269 208 -75 85 -138 254 -181 483 -11 60 -22 117 -24 127 -2 9 0 17 4 17 5 0
16 -32 25 -71z m1475 -84 c0 -14 -38 -51 -45 -43 -3 3 0 19 6 36 10 30 39 36
39 7z m-1295 -543 c-13 -11 -97 -43 -205 -77 -47 -15 -121 -44 -166 -65 -76
-35 -83 -41 -107 -91 -15 -29 -27 -63 -27 -75 0 -29 -10 -54 -21 -54 -5 0 -9
9 -9 20 0 11 -4 20 -9 20 -11 0 -82 -56 -98 -77 -12 -15 -13 -15 -13 4 0 13
23 42 59 75 44 40 62 64 70 96 11 39 17 44 79 73 76 35 125 54 302 114 125 43
163 53 145 37z m1200 -39 c61 -18 119 -37 130 -43 11 -5 67 -29 125 -54 l105
-45 19 -50 c14 -38 34 -64 77 -102 l59 -51 -6 -77 -6 -76 71 -77 c46 -50 71
-84 71 -100 0 -28 -42 -93 -71 -108 -20 -11 -20 -11 2 27 17 30 20 47 15 75
-8 44 -87 134 -108 122 -7 -4 -10 -4 -6 1 4 4 4 13 -2 20 -6 7 -4 28 5 60 24
78 20 94 -35 147 l-50 48 -39 -43 c-44 -46 -59 -45 -42 4 17 48 13 95 -10 140
-18 37 -32 47 -134 95 -62 30 -118 54 -124 54 -21 0 -201 62 -207 71 -7 12 20
6 161 -38z m-316 -518 c9 -27 10 -24 8 28 -1 31 2 57 7 57 4 0 25 -13 45 -29
20 -15 55 -39 78 -52 24 -13 43 -30 43 -37 0 -43 -115 -183 -164 -198 -11 -4
-33 -17 -48 -29 -31 -27 -132 -58 -240 -76 -86 -14 -189 -4 -308 31 -65 20
-215 110 -252 153 -29 35 -59 97 -56 117 2 10 37 43 78 73 l75 55 5 -56 c4
-50 6 -53 12 -27 4 17 11 89 14 162 l7 132 46 -32 c25 -18 48 -34 51 -37 3 -3
26 -20 52 -38 156 -108 257 -97 443 51 l80 63 6 -140 c4 -78 12 -154 18 -171z
m-1519 6 c0 -10 -16 -31 -36 -46 -50 -38 -94 -111 -94 -154 -1 -34 -2 -35 -15
-17 -8 11 -15 35 -15 54 0 29 12 47 73 112 71 77 87 86 87 51z m567 -32 c-9
-6 -14 -15 -11 -21 4 -6 2 -8 -4 -4 -6 3 -15 -2 -21 -11 -6 -10 -11 -12 -11
-5 0 6 9 21 20 32 11 11 26 20 33 20 6 0 4 -5 -6 -11z m1205 -1 c35 -27 26
-69 -22 -120 -39 -41 -41 -42 -55 -24 -8 11 -12 22 -7 25 4 3 14 19 22 34 13
26 15 27 27 11 16 -22 16 -16 2 25 -18 50 -1 75 33 49z m-87 -185 c-8 -8 -15
-18 -15 -23 0 -14 -134 -116 -187 -144 -99 -49 -196 -70 -328 -70 -135 0 -219
20 -335 79 -67 34 -172 121 -192 158 -10 20 -10 21 6 8 14 -12 22 -12 36 -3
15 9 30 3 92 -37 69 -45 132 -74 223 -102 24 -7 97 -12 180 -13 126 0 148 3
225 28 80 26 168 74 216 118 14 12 30 17 48 14 14 -3 26 0 26 6 0 5 -7 8 -14
5 -10 -4 -13 -1 -9 9 5 13 8 13 24 -2 16 -14 16 -18 4 -31z m-715 -229 c93
-23 118 -26 215 -21 71 4 142 14 200 30 50 14 91 24 92 23 1 -1 -26 -21 -59
-46 -33 -24 -106 -81 -161 -127 -85 -69 -103 -80 -117 -70 -93 66 -355 287
-300 253 14 -8 72 -27 130 -42z"/>
<path d="M1730 2907 c-74 -27 -79 -35 -20 -35 56 0 223 -30 314 -57 27 -8 69
-15 93 -15 41 0 43 1 33 20 -37 70 -310 126 -420 87z"/>
<path d="M2642 3034 c10 -10 20 -15 24 -12 3 4 -5 12 -18 18 -22 12 -22 12 -6
-6z"/>
<path d="M1571 2404 c0 -11 3 -14 6 -6 3 7 2 16 -1 19 -3 4 -6 -2 -5 -13z"/>
<path d="M1512 2365 c21 -19 43 -35 50 -35 7 1 3 6 -10 13 -12 7 -29 23 -38
35 -8 12 -21 22 -27 22 -7 0 5 -16 25 -35z"/>
<path d="M3124 2358 l-19 -23 23 19 c12 11 22 21 22 23 0 8 -8 2 -26 -19z"/>
<path d="M2242 2030 c-23 -4 -48 -12 -55 -20 -10 -10 -8 -12 8 -5 36 14 171
18 225 6 58 -12 79 -8 36 9 -34 13 -157 19 -214 10z"/>
<path d="M2191 1214 c0 -11 3 -14 6 -6 3 7 2 16 -1 19 -3 4 -6 -2 -5 -13z"/>
<path d="M2918 1318 c3 -13 7 -17 10 -10 2 7 8 10 13 6 5 -3 9 -3 9 0 0 3 -9
10 -19 15 -17 9 -18 8 -13 -11z"/>
<path d="M2882 1233 c-7 -16 -8 -31 -3 -36 12 -12 30 23 22 45 -5 14 -8 13
-19 -9z m11 -18 c-3 -9 -8 -14 -10 -11 -3 3 -2 9 2 15 9 16 15 13 8 -4z"/>
</g>
</svg>
